<svg width="56" height="56" viewBox="0 0 56 56" fill="none" xmlns="http://www.w3.org/2000/svg">
<g clip-path="url(#clip0_26_7)">
<path d="M28 56C43.464 56 56 43.464 56 28C56 12.536 43.464 0 28 0C12.536 0 0 12.536 0 28C0 43.464 12.536 56 28 56Z" fill="#3B5998"/>
<path d="M35.0392 29.0961H30.0429V47.4001H22.4732V29.0961H18.873V22.6634H22.4732V18.5007C22.4732 15.5239 23.8872 10.8625 30.1103 10.8625L35.7175 10.886V17.1301H31.6491C30.9818 17.1301 30.0434 17.4635 30.0434 18.8835V22.6694H35.7005L35.0392 29.0961Z" fill="white"/>
</g>
<defs>
<clipPath id="clip0_26_7">
<rect width="56" height="56" fill="white"/>
</clipPath>
</defs>
</svg>
