<svg width="56" height="56" viewBox="0 0 56 56" fill="none" xmlns="http://www.w3.org/2000/svg">
<path d="M48.5077 45.7123L28.6744 31.7123C28.2709 31.4273 27.7316 31.4273 27.3281 31.7123L7.49483 45.7123C7.18453 45.9309 6.9999 46.287 7.00012 46.6666V47.8333C7.00001 48.4776 7.52239 49 8.16672 49H47.8334C48.4777 49 49.0001 48.4776 49.0001 47.8333V46.6666C49.0008 46.2875 48.8171 45.9315 48.5077 45.7123Z" fill="#CFD8DC"/>
<path d="M28.6743 31.7123L8.841 17.7123C8.31524 17.3398 7.58702 17.4642 7.2146 17.99C7.07449 18.1877 6.99946 18.4242 7 18.6666V46.6666C6.99869 47.3109 7.52008 47.8343 8.16441 47.8356C8.40678 47.836 8.64325 47.761 8.841 47.621L28.6743 33.621C29.2007 33.2494 29.3263 32.5215 28.9547 31.9951C28.878 31.8863 28.7831 31.7915 28.6743 31.7147V31.7123Z" fill="#FAFAFA"/>
<path d="M48.37 17.6308C47.9821 17.4326 47.5166 17.464 47.159 17.7125L27.3257 31.7125C26.7993 32.084 26.6737 32.8119 27.0453 33.3384C27.122 33.4472 27.2169 33.542 27.3257 33.6188L47.159 47.6188C47.6848 47.9912 48.413 47.8669 48.7854 47.3411C48.9251 47.144 49 46.9084 49 46.6668V18.6668C49 18.2308 48.7571 17.8313 48.37 17.6308Z" fill="#EEEEEE"/>
<path d="M51.275 7.8027C51.1177 7.32375 50.6707 7 50.1667 7H5.8333C5.18897 7 4.6666 7.52237 4.6666 8.1667C4.6666 8.53387 4.83952 8.87972 5.1333 9.1L27.3 25.4333C27.7115 25.7363 28.2722 25.7363 28.6837 25.4333L50.8503 9.1C51.2565 8.80414 51.4276 8.28144 51.275 7.8027Z" fill="#ECEFF1"/>
<path d="M50.1667 7C49.9143 7 49.6686 7.08192 49.4667 7.2333L28 23.051L6.5333 7.2333C6.33139 7.08192 6.08573 7 5.8333 7C2.61166 7 0 9.61166 0 12.8333V43.1666C0 46.3883 2.61166 49 5.8333 49H8.16659C8.81092 49 9.3333 48.4776 9.3333 47.8333V20.9183L27.3256 33.621C27.7291 33.906 28.2684 33.906 28.6719 33.621L46.6666 20.9183V47.8333C46.6666 48.4776 47.189 49 47.8333 49H50.1666C53.3883 49 56 46.3883 56 43.1667V12.8333C56 9.61166 53.3883 7 50.1667 7Z" fill="#F44336"/>
</svg>
