<svg width="92" height="92" viewBox="0 0 92 92" fill="none" xmlns="http://www.w3.org/2000/svg">
<g clip-path="url(#clip0_26_68)">
<path d="M43.1106 91.2668C21.7091 91.2668 4.29813 73.8558 4.29813 52.4543C4.29813 31.0528 21.7091 13.6418 43.1106 13.6418C64.5121 13.6418 81.9231 31.0528 81.9231 52.4543C81.9231 73.8558 64.5121 91.2668 43.1106 91.2668ZM43.1106 16.5168C23.2947 16.5168 7.17313 32.6384 7.17313 52.4543C7.17313 72.2703 23.2947 88.3918 43.1106 88.3918C62.9266 88.3918 79.0481 72.2703 79.0481 52.4543C79.0481 32.6384 62.9266 16.5168 43.1106 16.5168Z" fill="white"/>
<path d="M43.1106 86.9544C24.0882 86.9544 8.61063 71.4768 8.61063 52.4544C8.61063 33.432 24.0882 17.9544 43.1106 17.9544C62.1331 17.9544 77.6106 33.432 77.6106 52.4544C77.6106 71.4768 62.1345 86.9544 43.1106 86.9544ZM43.1106 20.8294C25.6723 20.8294 11.4856 35.0161 11.4856 52.4544C11.4856 69.8927 25.6723 84.0794 43.1106 84.0794C60.5489 84.0794 74.7356 69.8927 74.7356 52.4544C74.7356 35.0161 60.5489 20.8294 43.1106 20.8294ZM80.9744 10.7957H1.44901C0.654068 10.7957 0.0115051 10.1531 0.0115051 9.35815C0.0115051 8.56322 0.654068 7.92065 1.44901 7.92065H80.9744C81.7693 7.92065 82.4119 8.56322 82.4119 9.35815C82.4119 10.1531 81.7693 10.7957 80.9744 10.7957ZM80.9744 6.48315H1.44901C0.654068 6.48315 0.0115051 5.84059 0.0115051 5.04565C0.0115051 4.25072 0.654068 3.60815 1.44901 3.60815H80.9744C81.7693 3.60815 82.4119 4.25072 82.4119 5.04565C82.4119 5.84059 81.7693 6.48315 80.9744 6.48315Z" fill="white"/>
<path d="M85.5198 13.6707C81.9519 13.6707 79.0481 10.7683 79.0481 7.2019C79.0481 3.63547 81.9519 0.733154 85.5198 0.733154C89.0862 0.733154 91.9885 3.63547 91.9885 7.2019C91.9885 10.7683 89.0876 13.6707 85.5198 13.6707ZM85.5198 3.60815C83.536 3.60815 81.9231 5.21959 81.9231 7.2019C81.9231 9.18422 83.536 10.7957 85.5198 10.7957C87.5021 10.7957 89.1135 9.18422 89.1135 7.2019C89.1135 5.21959 87.5021 3.60815 85.5198 3.60815ZM17.2615 26.9C16.4666 26.9 15.824 26.2574 15.824 25.4625V9.35815C15.824 8.56322 16.4666 7.92065 17.2615 7.92065C18.0564 7.92065 18.699 8.56322 18.699 9.35815V25.4625C18.699 26.2574 18.0564 26.9 17.2615 26.9ZM69.0173 26.9503C68.2223 26.9503 67.5798 26.3077 67.5798 25.5128V9.35815C67.5798 8.56322 68.2223 7.92065 69.0173 7.92065C69.8122 7.92065 70.4548 8.56322 70.4548 9.35815V25.5128C70.4548 26.3077 69.8108 26.9503 69.0173 26.9503ZM64.7019 23.3824C63.9069 23.3824 63.2644 22.7398 63.2644 21.9449V9.35815C63.2644 8.56322 63.9069 7.92065 64.7019 7.92065C65.4968 7.92065 66.1394 8.56322 66.1394 9.35815V21.9449C66.1394 22.7384 65.4968 23.3824 64.7019 23.3824ZM21.5769 23.3824C20.7819 23.3824 20.1394 22.7398 20.1394 21.9449V9.35815C20.1394 8.56322 20.7819 7.92065 21.5769 7.92065C22.3718 7.92065 23.0144 8.56322 23.0144 9.35815V21.9449C23.0144 22.7384 22.3718 23.3824 21.5769 23.3824ZM40.2529 76.925C39.4579 76.925 38.8154 76.2824 38.8154 75.4875V45.2942C38.8154 44.4993 39.4579 43.8567 40.2529 43.8567C41.0478 43.8567 41.6904 44.4993 41.6904 45.2942V75.4875C41.6904 76.281 41.0478 76.925 40.2529 76.925ZM46.0014 76.9235C45.2065 76.9235 44.5639 76.2795 44.5639 75.486L44.5654 45.2942C44.5654 44.4993 45.2094 43.8567 46.0029 43.8567C46.7978 43.8567 47.4404 44.5007 47.4404 45.2942L47.4389 75.486C47.4389 76.2795 46.7949 76.9235 46.0014 76.9235Z" fill="white"/>
<path d="M51.75 46.7316H34.5C32.1224 46.7316 30.1861 44.7967 30.1861 42.4191V33.7912C30.1861 31.4136 32.1224 29.4773 34.5 29.4773H51.75C52.9 29.4773 53.9824 29.9272 54.7975 30.7437C55.6126 31.5602 56.0625 32.6427 56.0625 33.7912V42.4191C56.0625 44.7967 54.1276 46.7316 51.75 46.7316ZM34.5 32.3523C33.7065 32.3523 33.0611 32.9977 33.0611 33.7912V42.4191C33.0611 43.2126 33.7065 43.8566 34.5 43.8566H51.75C52.5435 43.8566 53.1875 43.2126 53.1875 42.4191V33.7912C53.1875 32.9977 52.5435 32.3523 51.7529 32.3523H34.5ZM40.2529 76.9249C39.4594 76.9249 38.8154 76.2823 38.8154 75.4874C38.8154 74.6939 39.4579 74.0499 40.2529 74.0499L46.0014 74.0484C46.7949 74.0484 47.4389 74.691 47.4389 75.4859C47.4389 76.2794 46.7964 76.9234 46.0014 76.9234L40.2529 76.9249Z" fill="white"/>
<path d="M35.9433 46.7318C35.1483 46.7318 34.5058 46.0892 34.5058 45.2943V31.04C34.5058 30.2451 35.1483 29.6025 35.9433 29.6025C36.7382 29.6025 37.3808 30.2451 37.3808 31.04V45.2943C37.3808 46.0892 36.7382 46.7318 35.9433 46.7318ZM50.3183 46.7318C49.5233 46.7318 48.8808 46.0892 48.8808 45.2943V31.04C48.8808 30.2451 49.5233 29.6025 50.3183 29.6025C51.1132 29.6025 51.7558 30.2451 51.7558 31.04V45.2943C51.7558 46.0892 51.1132 46.7318 50.3183 46.7318ZM67.5654 58.2347H53.1875C52.3926 58.2347 51.75 57.5921 51.75 56.7972C51.75 56.0022 52.3926 55.3597 53.1875 55.3597H67.5654C68.3603 55.3597 69.0029 56.0022 69.0029 56.7972C69.0029 57.5921 68.3603 58.2347 67.5654 58.2347ZM67.5654 62.5472H53.1875C52.3926 62.5472 51.75 61.9046 51.75 61.1097C51.75 60.3147 52.3926 59.6722 53.1875 59.6722H67.5654C68.3603 59.6722 69.0029 60.3147 69.0029 61.1097C69.0029 61.9046 68.3603 62.5472 67.5654 62.5472ZM63.2543 66.8597H57.5043C56.7094 66.8597 56.0668 66.2171 56.0668 65.4222C56.0668 64.6272 56.7094 63.9847 57.5043 63.9847H63.2543C64.0493 63.9847 64.6918 64.6272 64.6918 65.4222C64.6918 66.2171 64.0493 66.8597 63.2543 66.8597ZM60.4167 52.4818C59.6218 52.4818 58.972 51.8392 58.972 51.0443C58.972 50.2493 59.6074 49.6068 60.4009 49.6068H60.4167C61.2102 49.6068 61.8542 50.2493 61.8542 51.0443C61.8542 51.8392 61.2102 52.4818 60.4167 52.4818ZM33.0625 58.2347H18.6846C17.8897 58.2347 17.2471 57.5921 17.2471 56.7972C17.2471 56.0022 17.8897 55.3597 18.6846 55.3597H33.0625C33.8574 55.3597 34.5 56.0022 34.5 56.7972C34.5 57.5921 33.8574 58.2347 33.0625 58.2347ZM33.0625 62.5472H18.6846C17.8897 62.5472 17.2471 61.9046 17.2471 61.1097C17.2471 60.3147 17.8897 59.6722 18.6846 59.6722H33.0625C33.8574 59.6722 34.5 60.3147 34.5 61.1097C34.5 61.9046 33.8574 62.5472 33.0625 62.5472ZM28.7514 66.8597H23.0014C22.2065 66.8597 21.5639 66.2171 21.5639 65.4222C21.5639 64.6272 22.2065 63.9847 23.0014 63.9847H28.7514C29.5464 63.9847 30.1889 64.6272 30.1889 65.4222C30.1889 66.2171 29.5464 66.8597 28.7514 66.8597ZM25.9138 52.4818C25.1189 52.4818 24.4691 51.8392 24.4691 51.0443C24.4691 50.2493 25.1045 49.6068 25.898 49.6068H25.9138C26.7073 49.6068 27.3513 50.2493 27.3513 51.0443C27.3513 51.8392 26.7073 52.4818 25.9138 52.4818Z" fill="white"/>
</g>
<defs>
<clipPath id="clip0_26_68">
<rect width="92" height="92" fill="white"/>
</clipPath>
</defs>
</svg>
