<svg width="92" height="92" viewBox="0 0 92 92" fill="none" xmlns="http://www.w3.org/2000/svg">
<g clip-path="url(#clip0_2_16)">
<path d="M43.1106 91.2669C21.7091 91.2669 4.2981 73.8559 4.2981 52.4544C4.2981 31.0529 21.7091 13.6419 43.1106 13.6419C64.5121 13.6419 81.9231 31.0529 81.9231 52.4544C81.9231 73.8559 64.5121 91.2669 43.1106 91.2669ZM43.1106 16.5169C23.2947 16.5169 7.1731 32.6384 7.1731 52.4544C7.1731 72.2703 23.2947 88.3919 43.1106 88.3919C62.9265 88.3919 79.0481 72.2703 79.0481 52.4544C79.0481 32.6384 62.9265 16.5169 43.1106 16.5169Z" fill="black"/>
<path d="M43.1106 86.9544C24.0882 86.9544 8.6106 71.4768 8.6106 52.4544C8.6106 33.4319 24.0882 17.9544 43.1106 17.9544C62.133 17.9544 77.6106 33.4319 77.6106 52.4544C77.6106 71.4768 62.1345 86.9544 43.1106 86.9544ZM43.1106 20.8294C25.6723 20.8294 11.4856 35.0161 11.4856 52.4544C11.4856 69.8927 25.6723 84.0794 43.1106 84.0794C60.5489 84.0794 74.7356 69.8927 74.7356 52.4544C74.7356 35.0161 60.5489 20.8294 43.1106 20.8294ZM80.9743 10.7956H1.44897C0.654037 10.7956 0.0114746 10.1531 0.0114746 9.35812C0.0114746 8.56319 0.654037 7.92062 1.44897 7.92062H80.9743C81.7693 7.92062 82.4118 8.56319 82.4118 9.35812C82.4118 10.1531 81.7693 10.7956 80.9743 10.7956ZM80.9743 6.48312H1.44897C0.654037 6.48312 0.0114746 5.84056 0.0114746 5.04562C0.0114746 4.25069 0.654037 3.60812 1.44897 3.60812H80.9743C81.7693 3.60812 82.4118 4.25069 82.4118 5.04562C82.4118 5.84056 81.7693 6.48312 80.9743 6.48312Z" fill="black"/>
<path d="M85.5197 13.6706C81.9519 13.6706 79.0481 10.7683 79.0481 7.20187C79.0481 3.63544 81.9519 0.733124 85.5197 0.733124C89.0862 0.733124 91.9885 3.63544 91.9885 7.20187C91.9885 10.7683 89.0876 13.6706 85.5197 13.6706ZM85.5197 3.60812C83.536 3.60812 81.9231 5.21956 81.9231 7.20187C81.9231 9.18419 83.536 10.7956 85.5197 10.7956C87.502 10.7956 89.1135 9.18419 89.1135 7.20187C89.1135 5.21956 87.502 3.60812 85.5197 3.60812ZM17.2615 26.8999C16.4665 26.8999 15.824 26.2574 15.824 25.4624V9.35812C15.824 8.56319 16.4665 7.92062 17.2615 7.92062C18.0564 7.92062 18.699 8.56319 18.699 9.35812V25.4624C18.699 26.2574 18.0564 26.8999 17.2615 26.8999ZM69.0172 26.9502C68.2223 26.9502 67.5797 26.3077 67.5797 25.5127V9.35812C67.5797 8.56319 68.2223 7.92062 69.0172 7.92062C69.8122 7.92062 70.4547 8.56319 70.4547 9.35812V25.5127C70.4547 26.3077 69.8107 26.9502 69.0172 26.9502ZM64.7019 23.3824C63.9069 23.3824 63.2644 22.7398 63.2644 21.9449V9.35812C63.2644 8.56319 63.9069 7.92062 64.7019 7.92062C65.4968 7.92062 66.1394 8.56319 66.1394 9.35812V21.9449C66.1394 22.7384 65.4968 23.3824 64.7019 23.3824ZM21.5768 23.3824C20.7819 23.3824 20.1393 22.7398 20.1393 21.9449V9.35812C20.1393 8.56319 20.7819 7.92062 21.5768 7.92062C22.3718 7.92062 23.0143 8.56319 23.0143 9.35812V21.9449C23.0143 22.7384 22.3718 23.3824 21.5768 23.3824ZM40.2529 76.9249C39.4579 76.9249 38.8154 76.2824 38.8154 75.4874V45.2942C38.8154 44.4992 39.4579 43.8567 40.2529 43.8567C41.0478 43.8567 41.6904 44.4992 41.6904 45.2942V75.4874C41.6904 76.2809 41.0478 76.9249 40.2529 76.9249ZM46.0014 76.9235C45.2065 76.9235 44.5639 76.2795 44.5639 75.486L44.5654 45.2942C44.5654 44.4992 45.2094 43.8567 46.0029 43.8567C46.7978 43.8567 47.4404 44.5007 47.4404 45.2942L47.4389 75.486C47.4389 76.2795 46.7949 76.9235 46.0014 76.9235Z" fill="black"/>
<path d="M51.75 46.7317H34.5C32.1224 46.7317 30.1861 44.7968 30.1861 42.4192V33.7913C30.1861 31.4137 32.1224 29.4774 34.5 29.4774H51.75C52.9 29.4774 53.9824 29.9273 54.7975 30.7438C55.6126 31.5603 56.0625 32.6428 56.0625 33.7913V42.4192C56.0625 44.7968 54.1276 46.7317 51.75 46.7317ZM34.5 32.3524C33.7065 32.3524 33.0611 32.9978 33.0611 33.7913V42.4192C33.0611 43.2127 33.7065 43.8567 34.5 43.8567H51.75C52.5435 43.8567 53.1875 43.2127 53.1875 42.4192V33.7913C53.1875 32.9978 52.5435 32.3524 51.7529 32.3524H34.5ZM40.2529 76.9249C39.4594 76.9249 38.8154 76.2824 38.8154 75.4874C38.8154 74.6939 39.4579 74.0499 40.2529 74.0499L46.0014 74.0485C46.7949 74.0485 47.4389 74.6911 47.4389 75.486C47.4389 76.2795 46.7964 76.9235 46.0014 76.9235L40.2529 76.9249Z" fill="black"/>
<path d="M35.9433 46.7317C35.1483 46.7317 34.5058 46.0891 34.5058 45.2942V31.0399C34.5058 30.245 35.1483 29.6024 35.9433 29.6024C36.7382 29.6024 37.3808 30.245 37.3808 31.0399V45.2942C37.3808 46.0891 36.7382 46.7317 35.9433 46.7317ZM50.3183 46.7317C49.5233 46.7317 48.8808 46.0891 48.8808 45.2942V31.0399C48.8808 30.245 49.5233 29.6024 50.3183 29.6024C51.1132 29.6024 51.7558 30.245 51.7558 31.0399V45.2942C51.7558 46.0891 51.1132 46.7317 50.3183 46.7317ZM67.5654 58.2346H53.1875C52.3926 58.2346 51.75 57.592 51.75 56.7971C51.75 56.0021 52.3926 55.3596 53.1875 55.3596H67.5654C68.3603 55.3596 69.0029 56.0021 69.0029 56.7971C69.0029 57.592 68.3603 58.2346 67.5654 58.2346ZM67.5654 62.5471H53.1875C52.3926 62.5471 51.75 61.9045 51.75 61.1096C51.75 60.3146 52.3926 59.6721 53.1875 59.6721H67.5654C68.3603 59.6721 69.0029 60.3146 69.0029 61.1096C69.0029 61.9045 68.3603 62.5471 67.5654 62.5471ZM63.2543 66.8596H57.5043C56.7094 66.8596 56.0668 66.217 56.0668 65.4221C56.0668 64.6271 56.7094 63.9846 57.5043 63.9846H63.2543C64.0493 63.9846 64.6918 64.6271 64.6918 65.4221C64.6918 66.217 64.0493 66.8596 63.2543 66.8596ZM60.4167 52.4817C59.6218 52.4817 58.972 51.8391 58.972 51.0442C58.972 50.2493 59.6074 49.6067 60.4009 49.6067H60.4167C61.2102 49.6067 61.8542 50.2493 61.8542 51.0442C61.8542 51.8391 61.2102 52.4817 60.4167 52.4817ZM33.0625 58.2346H18.6846C17.8897 58.2346 17.2471 57.592 17.2471 56.7971C17.2471 56.0021 17.8897 55.3596 18.6846 55.3596H33.0625C33.8574 55.3596 34.5 56.0021 34.5 56.7971C34.5 57.592 33.8574 58.2346 33.0625 58.2346ZM33.0625 62.5471H18.6846C17.8897 62.5471 17.2471 61.9045 17.2471 61.1096C17.2471 60.3146 17.8897 59.6721 18.6846 59.6721H33.0625C33.8574 59.6721 34.5 60.3146 34.5 61.1096C34.5 61.9045 33.8574 62.5471 33.0625 62.5471ZM28.7514 66.8596H23.0014C22.2065 66.8596 21.5639 66.217 21.5639 65.4221C21.5639 64.6271 22.2065 63.9846 23.0014 63.9846H28.7514C29.5464 63.9846 30.1889 64.6271 30.1889 65.4221C30.1889 66.217 29.5464 66.8596 28.7514 66.8596ZM25.9138 52.4817C25.1189 52.4817 24.4691 51.8391 24.4691 51.0442C24.4691 50.2493 25.1045 49.6067 25.898 49.6067H25.9138C26.7073 49.6067 27.3513 50.2493 27.3513 51.0442C27.3513 51.8391 26.7073 52.4817 25.9138 52.4817Z" fill="black"/>
</g>
<defs>
<clipPath id="clip0_2_16">
<rect width="92" height="92" fill="white"/>
</clipPath>
</defs>
</svg>
